<?xml version="1.0" standalone="no"?><!DOCTYPE svg PUBLIC "-//W3C//DTD SVG 1.1//EN" "http://www.w3.org/Graphics/SVG/1.1/DTD/svg11.dtd"><svg t="1581560971508" class="icon" viewBox="0 0 1502 1024" version="1.1" xmlns="http://www.w3.org/2000/svg" p-id="9283" xmlns:xlink="http://www.w3.org/1999/xlink" width="293.359375" height="200"><defs><style type="text/css"></style></defs><path d="M1249.67446 0.145513c-77.561267 0-121.489773 52.393894-175.714022 149.402677-109.592469 195.161537-199.508628 270.434861-414.575269 397.644491-322.371167 190.585651-575.188867 343.191448-577.705604 343.191449L0 1020.110497h12.126098a2415.381412 2415.381412 0 0 1 465.825192-199.508629c-38.208648 43.928505-68.63829 80.764387-64.977581 87.628217a4.118297 4.118297 0 0 0 3.889503 2.516737c12.812481 0 25.624961 1.372766 38.895031 1.372766a1008.982857 1008.982857 0 0 0 280.959399-48.046803 553.224614 553.224614 0 0 0 111.194029-45.75886l14.87163-1.60156L938.056625 869.563848l18.074749 37.979854v37.979854l-59.257723 50.56354-7.550212 27.226521h315.736132l-12.354892-32.717585-149.860265-45.758859-16.47319-43.928506 15.786807-129.726367a378.883359 378.883359 0 0 0 222.845647-251.673729C1320.143104 315.424057 1345.768065 284.079238 1418.524652 215.440948l84.196302-70.697438L1418.524652 72.9021A214.151464 214.151464 0 0 0 1249.67446 0.145513z" fill="#e57d05" p-id="9284"></path></svg>